<?xml version="1.0" encoding="UTF-8" standalone="no"?>
<!DOCTYPE svg PUBLIC "-//W3C//DTD SVG 1.1//EN" "http://www.w3.org/Graphics/SVG/1.1/DTD/svg11.dtd">
<svg version="1.1" xmlns="http://www.w3.org/2000/svg" xmlns:xlink="http://www.w3.org/1999/xlink" preserveAspectRatio="xMidYMid meet" viewBox="0 0 640 640" width="640" height="640"><defs><path d="M329.84 9.84C261.63 9.84 201.29 44.6 165.87 97.39C159.84 97.39 129.67 97.39 75.37 97.39L132.43 518.12L527.25 518.12L584.3 97.39L493.8 97.39C430.18 39.02 375.53 9.84 329.84 9.84Z" id="aC5oDbnFH"></path><path d="M132.43 527.96C127.51 527.96 123.57 524.35 122.92 519.43C117.21 477.36 71.56 140.78 65.86 98.7C65.53 95.75 66.19 93.13 68.15 90.83C70.12 88.54 72.74 87.56 75.37 87.56C83.93 87.56 152.4 87.56 160.96 87.56C199.65 32.46 262.61 0 329.84 0C397.06 0 460.02 32.79 498.72 87.56C507.28 87.56 575.75 87.56 584.3 87.56C587.26 87.56 589.88 88.87 591.52 90.83C593.16 92.8 594.14 95.75 593.81 98.7C588.11 140.78 542.46 477.36 536.76 519.43C536.43 524.35 532.16 527.96 527.25 527.96C448.28 527.96 171.91 527.96 132.43 527.96ZM518.72 508.28L573.16 107.23C525.54 107.23 499.09 107.23 493.8 107.23C490.52 107.23 487.57 105.59 485.6 102.97C450.84 50.83 392.47 19.68 329.84 19.68C267.2 19.68 208.83 50.83 174.07 102.97C172.1 105.59 169.15 107.23 165.87 107.23C160.58 107.23 134.13 107.23 86.52 107.23L140.95 508.28L518.72 508.28Z" id="bISGCF5qV"></path><path d="M123.57 139.37L188.5 139.37C195.98 128.15 200.13 121.92 200.96 120.68C229.82 77.39 278.02 51.48 329.84 51.48C381.65 51.48 429.85 77.39 458.71 120.68C459.54 121.92 463.69 128.15 471.17 139.37L536.1 139.37L490.52 476.14L169.15 476.14L123.57 139.37Z" id="abfqhb89t"></path><path d="M200.96 148.55C229.82 108.54 278.02 84.93 329.84 84.93C381.65 84.93 429.85 108.87 458.71 148.55C459.54 149.69 463.69 155.37 471.17 165.6L532.49 165.6L536.1 139.37L471.17 139.37C463.69 128.15 459.54 121.92 458.71 120.68C429.85 77.39 381.65 51.48 329.84 51.48C278.02 51.48 229.82 77.39 200.96 120.68C200.13 121.92 195.98 128.15 188.5 139.37L123.57 139.37L127.18 165.6L188.5 165.6C195.98 155.37 200.13 149.69 200.96 148.55Z" id="b2Fp7Lod2O"></path><path d="M169.15 485.98C164.23 485.98 160.3 482.38 159.64 477.46C155.09 443.78 118.62 174.36 114.06 140.68C113.73 137.73 114.39 135.1 116.36 132.81C118.33 130.51 120.95 129.53 123.57 129.53C127.55 129.53 147.45 129.53 183.25 129.53C188.96 120.87 192.13 116.06 192.76 115.1C223.59 69.19 274.74 41.65 329.84 41.65C384.93 41.65 436.08 69.19 466.91 115.1C467.54 116.06 470.71 120.87 476.42 129.53C512.23 129.53 532.12 129.53 536.1 129.53C539.05 129.53 541.67 130.84 543.31 132.81C544.95 134.78 545.94 137.73 545.61 140.68C541.05 174.36 504.59 443.78 500.03 477.46C499.7 482.38 495.77 485.98 490.85 485.98C426.51 485.98 201.32 485.98 169.15 485.98ZM482.32 466.63L525.28 149.21C493.01 149.21 475.08 149.21 471.5 149.21C468.22 149.21 465.27 147.57 463.3 144.94C462.05 143.07 452.09 128.12 450.84 126.25C423.62 85.59 378.7 61.65 329.84 61.65C280.98 61.65 236.05 85.92 208.83 126.25C207.59 128.12 197.62 143.07 196.37 144.94C194.4 147.57 191.45 149.21 188.17 149.21C184.59 149.21 166.66 149.21 134.39 149.21L177.68 466.63L482.32 466.63Z" id="c9G2WFWobA"></path><path d="M577.42 484.01C577.42 484.01 577.42 484.01 577.42 484.01C577.42 541.86 577.42 574 577.42 580.42C577.42 580.42 577.42 580.42 577.42 580.42C280.32 580.42 115.26 580.42 82.25 580.42C82.25 580.42 82.25 580.42 82.25 580.42C82.25 522.58 82.25 490.44 82.25 484.01C82.25 484.01 82.25 484.01 82.25 484.01C379.35 484.01 544.41 484.01 577.42 484.01Z" id="b1dRr02cAY"></path><path d="M577.42 537.14C577.42 537.14 577.42 537.14 577.42 537.14C577.42 563.31 577.42 577.84 577.42 580.75C577.42 580.75 577.42 580.75 577.42 580.75C280.32 580.75 115.26 580.75 82.25 580.75C82.25 580.75 82.25 580.75 82.25 580.75C82.25 554.58 82.25 540.05 82.25 537.14C82.25 537.14 82.25 537.14 82.25 537.14C379.35 537.14 544.41 537.14 577.42 537.14Z" id="a2fzH1aqzO"></path><path d="M72.42 590.26L72.42 474.18L587.26 474.18L587.26 590.26L72.42 590.26ZM567.91 570.59L567.91 493.52L92.09 493.52L92.09 570.59L567.91 570.59Z" id="d3djRGP3I"></path><path d="M623.66 580.42C623.66 580.42 623.66 580.42 623.66 580.42C623.66 610.53 623.66 627.25 623.66 630.6C623.66 630.6 623.66 630.6 623.66 630.6C271.47 630.6 75.8 630.6 36.67 630.6C36.67 630.6 36.67 630.6 36.67 630.6C36.67 600.49 36.67 583.77 36.67 580.42C36.67 580.42 36.67 580.42 36.67 580.42C388.86 580.42 584.52 580.42 623.66 580.42Z" id="k4o7qEEzk1"></path><path d="M26.83 640.43L26.83 570.59L633.17 570.59L633.17 640.43L26.83 640.43ZM613.49 621.09L613.49 590.26L46.18 590.26L46.18 621.09L613.49 621.09Z" id="eiG9fdnXg"></path><path d="M329.84 442.04C245.23 442.04 167.51 457.78 103.9 484.01C134.02 484.01 284.65 484.01 555.78 484.01C461.55 456.03 386.24 442.04 329.84 442.04Z" id="a6gzZDLKS"></path><path d="M104.22 493.52C99.63 493.52 95.7 490.25 94.72 485.65C93.73 481.06 96.35 476.47 100.62 474.83C167.84 446.96 247.2 432.2 330.16 432.2C413.13 432.2 492.49 446.96 559.71 474.83C563.97 476.47 566.27 481.06 565.61 485.65C564.3 490.25 560.37 493.52 555.78 493.52C465.47 493.52 149.38 493.52 104.22 493.52ZM498.39 474.18C446.58 459.42 389.52 451.55 330.16 451.55C270.81 451.55 213.75 459.42 161.94 474.18C229.23 474.18 464.74 474.18 498.39 474.18Z" id="c1ueqweve1"></path><path d="M281.3 254.8L267.2 254.8L267.2 274.14L251.79 274.14L251.79 206.59C269.5 206.59 279.34 206.59 281.3 206.59C299.01 206.59 309.18 215.12 309.18 230.2C309.18 240.7 304.59 248.24 296.39 252.17C297.35 253.66 302.16 261.09 310.82 274.47L293.44 274.47L282.62 254.8L281.3 254.8ZM294.42 230.53C294.42 222.99 289.5 219.05 281.3 219.05C280.36 219.05 275.66 219.05 267.2 219.05L267.2 242.01L281.3 242.01C290.05 239.38 294.42 235.56 294.42 230.53Z" id="d12Md6a4S0"></path><path d="M321.97 206.59L337.38 206.59L337.38 274.47L321.97 274.47L321.97 206.59Z" id="f1wghkO3Yi"></path><path d="M408.21 230.2C408.21 245.94 398.37 255.12 380.99 255.12C380.1 255.12 375.61 255.12 367.55 255.12L367.55 274.47L352.13 274.47L352.13 206.59L380.99 206.59C399.14 212.28 408.21 220.15 408.21 230.2ZM380.34 242.01C388.86 242.01 393.78 238.07 393.78 230.53C393.78 222.99 388.86 219.05 380.34 219.05C379.48 219.05 375.22 219.05 367.55 219.05L367.55 242.01C375.22 242.01 379.48 242.01 380.34 242.01Z" id="h6t9QSc1"></path><path d="M234.74 501.72C234.74 501.72 234.74 501.72 234.74 501.72C234.74 513.33 234.74 519.78 234.74 521.07C234.74 521.07 234.74 521.07 234.74 521.07C221.36 521.07 213.93 521.07 212.44 521.07C212.44 521.07 212.44 521.07 212.44 521.07C212.44 509.46 212.44 503.01 212.44 501.72C212.44 501.72 212.44 501.72 212.44 501.72C225.82 501.72 233.25 501.72 234.74 501.72Z" id="boj35X5kY"></path><path d="M197.36 501.72C197.36 501.72 197.36 501.72 197.36 501.72C197.36 513.33 197.36 519.78 197.36 521.07C197.36 521.07 197.36 521.07 197.36 521.07C149.15 521.07 122.37 521.07 117.01 521.07C117.01 521.07 117.01 521.07 117.01 521.07C117.01 509.46 117.01 503.01 117.01 501.72C117.01 501.72 117.01 501.72 117.01 501.72C165.22 501.72 192 501.72 197.36 501.72Z" id="a3oULvkFP2"></path></defs><g><g><g><use xlink:href="#aC5oDbnFH" opacity="1" fill="#8b9da1" fill-opacity="1"></use><g><use xlink:href="#aC5oDbnFH" opacity="1" fill-opacity="0" stroke="#000000" stroke-width="1" stroke-opacity="0"></use></g></g><g><use xlink:href="#bISGCF5qV" opacity="1" fill="#000000" fill-opacity="1"></use><g><use xlink:href="#bISGCF5qV" opacity="1" fill-opacity="0" stroke="#000000" stroke-width="1" stroke-opacity="0"></use></g></g><g><use xlink:href="#abfqhb89t" opacity="1" fill="#9aa8ac" fill-opacity="1"></use><g><use xlink:href="#abfqhb89t" opacity="1" fill-opacity="0" stroke="#000000" stroke-width="1" stroke-opacity="0"></use></g></g><g><use xlink:href="#b2Fp7Lod2O" opacity="1" fill="#8b9da1" fill-opacity="1"></use><g><use xlink:href="#b2Fp7Lod2O" opacity="1" fill-opacity="0" stroke="#000000" stroke-width="1" stroke-opacity="0"></use></g></g><g><use xlink:href="#c9G2WFWobA" opacity="1" fill="#000000" fill-opacity="1"></use><g><use xlink:href="#c9G2WFWobA" opacity="1" fill-opacity="0" stroke="#000000" stroke-width="1" stroke-opacity="0"></use></g></g><g><use xlink:href="#b1dRr02cAY" opacity="1" fill="#8b9da1" fill-opacity="1"></use><g><use xlink:href="#b1dRr02cAY" opacity="1" fill-opacity="0" stroke="#000000" stroke-width="1" stroke-opacity="0"></use></g></g><g><use xlink:href="#a2fzH1aqzO" opacity="1" fill="#5c787c" fill-opacity="1"></use><g><use xlink:href="#a2fzH1aqzO" opacity="1" fill-opacity="0" stroke="#000000" stroke-width="1" stroke-opacity="0"></use></g></g><g><use xlink:href="#d3djRGP3I" opacity="1" fill="#000000" fill-opacity="1"></use><g><use xlink:href="#d3djRGP3I" opacity="1" fill-opacity="0" stroke="#000000" stroke-width="1" stroke-opacity="0"></use></g></g><g><use xlink:href="#k4o7qEEzk1" opacity="1" fill="#8b9da1" fill-opacity="1"></use><g><use xlink:href="#k4o7qEEzk1" opacity="1" fill-opacity="0" stroke="#000000" stroke-width="1" stroke-opacity="0"></use></g></g><g><use xlink:href="#eiG9fdnXg" opacity="1" fill="#000000" fill-opacity="1"></use><g><use xlink:href="#eiG9fdnXg" opacity="1" fill-opacity="0" stroke="#000000" stroke-width="1" stroke-opacity="0"></use></g></g><g><use xlink:href="#a6gzZDLKS" opacity="1" fill="#c19573" fill-opacity="1"></use><g><use xlink:href="#a6gzZDLKS" opacity="1" fill-opacity="0" stroke="#000000" stroke-width="1" stroke-opacity="0"></use></g></g><g><use xlink:href="#c1ueqweve1" opacity="1" fill="#000000" fill-opacity="1"></use><g><use xlink:href="#c1ueqweve1" opacity="1" fill-opacity="0" stroke="#000000" stroke-width="1" stroke-opacity="0"></use></g></g><g><use xlink:href="#d12Md6a4S0" opacity="1" fill="#000000" fill-opacity="1"></use><g><use xlink:href="#d12Md6a4S0" opacity="1" fill-opacity="0" stroke="#000000" stroke-width="1" stroke-opacity="0"></use></g></g><g><use xlink:href="#f1wghkO3Yi" opacity="1" fill="#000000" fill-opacity="1"></use><g><use xlink:href="#f1wghkO3Yi" opacity="1" fill-opacity="0" stroke="#000000" stroke-width="1" stroke-opacity="0"></use></g></g><g><use xlink:href="#h6t9QSc1" opacity="1" fill="#000000" fill-opacity="1"></use><g><use xlink:href="#h6t9QSc1" opacity="1" fill-opacity="0" stroke="#000000" stroke-width="1" stroke-opacity="0"></use></g></g><g><use xlink:href="#boj35X5kY" opacity="1" fill="#ffffff" fill-opacity="1"></use><g><use xlink:href="#boj35X5kY" opacity="1" fill-opacity="0" stroke="#000000" stroke-width="1" stroke-opacity="0"></use></g></g><g><use xlink:href="#a3oULvkFP2" opacity="1" fill="#ffffff" fill-opacity="1"></use><g><use xlink:href="#a3oULvkFP2" opacity="1" fill-opacity="0" stroke="#000000" stroke-width="1" stroke-opacity="0"></use></g></g></g></g></svg>