<?xml version="1.0" encoding="UTF-8" standalone="no"?>
<!DOCTYPE svg PUBLIC "-//W3C//DTD SVG 1.1//EN" "http://www.w3.org/Graphics/SVG/1.1/DTD/svg11.dtd">
<svg version="1.1" xmlns="http://www.w3.org/2000/svg" xmlns:xlink="http://www.w3.org/1999/xlink" preserveAspectRatio="xMidYMid meet" viewBox="0 0 640 640" width="640" height="640"><defs><path d="M320 620.99L320 429.64" id="b1HmrNtYdp"></path><path d="M320 207.22L320 15.86" id="hHzaUpe0K"></path><path d="M12.03 320L207.51 320" id="gwXCzrkA5"></path><path d="M432.93 320L627.97 320" id="a1jKi93bfn"></path><path d="M335.77 320L360.84 320" id="e2mpcCt4cq"></path><path d="M279.26 320L304.32 320" id="f1GCeEk9vx"></path><path d="M320 360.56L320 335.5" id="anTF6krYM"></path><path d="M320 304.76L320 279.69" id="cX2rhtBYZ"></path><path d="M320 431.24L320 204.89" id="hSbehfSyJ"></path><path d="M208.99 320L436.05 322" id="etdnR2iw9"></path><path d="M507.16 319.94C507.16 422.26 423.3 505.33 320 505.33C216.7 505.33 132.84 422.26 132.84 319.94C132.84 217.62 216.7 134.55 320 134.55C423.3 134.55 507.16 217.62 507.16 319.94Z" id="cRpquZH5Z"></path><path d="M460.46 319.84C460.46 396.19 397.52 458.17 320 458.17C242.48 458.17 179.54 396.19 179.54 319.84C179.54 243.49 242.48 181.5 320 181.5C397.52 181.5 460.46 243.49 460.46 319.84Z" id="f227Z5tXAY"></path></defs><g><g><g><g><use xlink:href="#b1HmrNtYdp" opacity="1" fill-opacity="0" stroke="#000000" stroke-width="8" stroke-opacity="1"></use></g></g><g><g><use xlink:href="#hHzaUpe0K" opacity="1" fill-opacity="0" stroke="#000000" stroke-width="8" stroke-opacity="1"></use></g></g><g><g><use xlink:href="#gwXCzrkA5" opacity="1" fill-opacity="0" stroke="#000000" stroke-width="8" stroke-opacity="1"></use></g></g><g><g><use xlink:href="#a1jKi93bfn" opacity="1" fill-opacity="0" stroke="#000000" stroke-width="8" stroke-opacity="1"></use></g></g><g><g><use xlink:href="#e2mpcCt4cq" opacity="1" fill-opacity="0" stroke="#000000" stroke-width="8" stroke-opacity="1"></use></g></g><g><g><use xlink:href="#f1GCeEk9vx" opacity="1" fill-opacity="0" stroke="#000000" stroke-width="8" stroke-opacity="1"></use></g></g><g><g><use xlink:href="#anTF6krYM" opacity="1" fill-opacity="0" stroke="#000000" stroke-width="8" stroke-opacity="1"></use></g></g><g><g><use xlink:href="#cX2rhtBYZ" opacity="1" fill-opacity="0" stroke="#000000" stroke-width="8" stroke-opacity="1"></use></g></g><g><g><use xlink:href="#hSbehfSyJ" opacity="1" fill-opacity="0" stroke="#000000" stroke-width="2" stroke-opacity="1"></use></g></g><g><g><use xlink:href="#etdnR2iw9" opacity="1" fill-opacity="0" stroke="#000000" stroke-width="2" stroke-opacity="1"></use></g></g><g><g><use xlink:href="#cRpquZH5Z" opacity="1" fill-opacity="0" stroke="#000000" stroke-width="10" stroke-opacity="1"></use></g></g><g><g><use xlink:href="#f227Z5tXAY" opacity="1" fill-opacity="0" stroke="#000000" stroke-width="2" stroke-opacity="1"></use></g></g></g></g></svg>